<?xml version="1.0" encoding="UTF-8" standalone="no"?>
<!DOCTYPE svg PUBLIC "-//W3C//DTD SVG 1.1//EN" "http://www.w3.org/Graphics/SVG/1.1/DTD/svg11.dtd">
<svg width="100%" height="100%" viewBox="0 0 1186 196" version="1.1" xmlns="http://www.w3.org/2000/svg" xmlns:xlink="http://www.w3.org/1999/xlink" xml:space="preserve" xmlns:serif="http://www.serif.com/" style="fill-rule:evenodd;clip-rule:evenodd;stroke-linejoin:round;stroke-miterlimit:2;">
    <g>
        <path id="path7-1-0" d="M143.966,94.64C143.966,90.964 142.42,87.544 139.846,84.916C137.016,82.025 133.925,80.717 130.067,80.717C126.465,80.717 123.118,82.031 120.289,84.916C117.715,87.544 116.431,90.958 116.431,94.64C116.431,98.577 117.715,101.996 120.289,104.613C123.118,107.516 126.465,108.818 130.067,108.818C133.925,108.818 137.016,107.509 139.846,104.613C142.426,101.997 143.966,98.577 143.966,94.64Z" style="fill:rgb(233,30,35);fill-rule:nonzero;"/>
        <path id="path9-7-6" d="M348.831,86.984C346.002,84.355 342.91,83.046 339.053,83.046C335.196,83.046 332.104,84.36 329.275,86.984C326.701,89.874 325.417,93.026 325.417,96.963C325.417,100.905 326.701,104.058 329.275,106.948C332.104,109.576 335.451,110.89 339.053,110.89C342.917,110.89 346.002,109.57 348.831,106.948C351.405,104.057 352.944,100.911 352.944,96.963C352.955,93.026 351.405,89.874 348.831,86.984Z" style="fill:rgb(2,178,231);fill-rule:nonzero;"/>
        <path id="path11-4-1" d="M470.833,88.037C468.004,85.146 464.919,83.832 461.055,83.832C457.452,83.832 454.106,85.146 451.277,88.037C448.703,90.665 447.419,94.073 447.419,97.755C447.419,101.692 448.703,105.106 451.277,107.746C454.106,110.637 457.453,111.938 461.055,111.938C464.919,111.938 468.004,110.629 470.833,107.746C473.407,105.105 474.953,101.697 474.953,97.755C474.953,94.073 473.407,90.665 470.833,88.037Z" style="fill:rgb(250,188,22);fill-rule:nonzero;"/>
        <path id="path13-0-3" d="M653.091,101.283C653.091,97.346 651.807,94.188 649.227,91.298C646.398,88.676 643.057,87.1 639.455,87.1C635.598,87.1 632.506,88.676 629.683,91.298C627.109,94.189 625.819,97.341 625.819,101.283C625.819,104.959 627.109,108.379 629.683,111.269C632.513,113.897 635.604,115.2 639.455,115.2C643.063,115.2 646.404,113.891 649.227,111.269C651.807,108.379 653.091,104.959 653.091,101.283Z" style="fill:rgb(233,30,35);fill-rule:nonzero;"/>
        <path id="path15-9-8" d="M843.266,88.821C840.431,86.193 837.084,84.623 833.488,84.623C829.624,84.623 826.539,86.193 823.71,88.821C821.136,91.712 819.852,94.864 819.852,98.807C819.852,102.488 821.136,105.902 823.71,108.792C826.545,111.42 829.63,112.723 833.488,112.723C837.091,112.723 840.437,111.414 843.266,108.792C845.84,105.901 847.124,102.494 847.124,98.807C847.124,94.864 845.84,91.712 843.266,88.821Z" style="fill:rgb(250,188,22);fill-rule:nonzero;"/>
        <path id="path17-4-9" d="M1062.51,87.545C1059.94,84.655 1056.59,83.341 1052.99,83.341C1049.14,83.341 1045.79,84.655 1043.22,87.545C1040.39,90.174 1039.1,93.582 1039.1,97.263C1039.1,101.201 1040.39,104.614 1043.22,107.255C1045.8,110.145 1049.14,111.447 1052.99,111.447C1056.6,111.447 1059.95,110.138 1062.51,107.255C1065.35,104.613 1066.63,101.206 1066.63,97.263C1066.62,93.582 1065.34,90.174 1062.51,87.545Z" style="fill:rgb(2,178,231);fill-rule:nonzero;"/>
        <path d="M596.829,70.662L587.729,70.662C586.699,70.202 585.559,70.042 584.439,70.192L580.989,70.662L531.309,70.662L531.319,70.552C531.769,68.072 532.779,67.282 534.349,66.782C534.539,66.722 534.729,66.652 534.909,66.572C543.979,62.672 556.909,59.382 574.409,56.522C575.189,56.432 575.919,56.192 576.579,55.832C578.619,54.732 579.899,52.512 579.759,50.122L579.759,42.742C579.819,40.162 578.219,37.732 575.659,36.842C558.849,31.032 542.469,32.942 526.969,42.532C521.619,45.212 516.949,50.592 512.689,58.962L512.579,59.182L512.479,59.402L503.839,79.382C501.689,83.592 500.679,89.022 500.679,96.442C500.679,101.152 499.969,105.221 498.579,108.532L498.439,108.912C496.459,114.692 495.529,124.503 495.529,139.782C495.529,141.512 496.269,143.162 497.559,144.311C498.679,145.322 500.129,145.862 501.619,145.862C501.839,145.862 502.059,145.852 502.279,145.832C519.729,143.923 533.609,141.452 544.719,138.292C561.209,133.593 574.129,126.722 583.099,117.843C584.849,116.113 585.379,113.492 584.449,111.202C583.509,108.923 581.289,107.432 578.819,107.432C570.939,107.432 561.699,109.022 551.349,112.152L551.219,112.192L551.119,112.221L526.459,120.532C524.349,120.343 523.549,119.452 522.909,117.952L522.779,117.662C521.819,115.722 521.759,113.462 522.579,110.923C527.629,102.923 529.219,101.332 529.479,101.093L529.759,100.853C532.379,98.332 535.189,97.593 538.849,98.443C539.299,98.543 539.759,98.603 540.219,98.603C544.099,98.603 546.279,95.653 547.619,93.623L551.689,94.063C553.619,94.413 558.499,95.163 562.109,91.963C563.899,90.773 569.289,89.253 571.299,88.693C575.939,87.623 580.079,85.653 583.639,82.833L585.459,82.833L587.069,83.273C594.01,86.073 598.69,83.253 600.89,81.293C602.249,80.073 602.94,78.373 602.919,76.683C602.88,73.352 600.169,70.662 596.829,70.662ZM792.779,6.902C790.309,7.072 788.189,8.722 787.419,11.082C784.71,19.362 779.899,31.432 773.489,45.982C766.969,60.752 762.019,73.152 759.169,81.852L754.26,95.352C752.829,97.503 751.79,97.732 749.2,96.652C735.579,91.032 725.329,83.072 718.729,72.982L711.149,57.792C711.079,57.642 710.999,57.492 710.909,57.352C708.54,53.142 705.47,48.812 700.76,48.182C698.12,47.832 695.6,48.742 693.64,50.742L693.57,50.812C684.92,59.952 679.44,72.932 677.291,89.402C677.261,89.632 677.24,89.852 677.24,90.072L673.93,130.561C673.909,130.711 673.9,130.862 673.9,131.012C673.83,133.541 675.33,135.782 677.55,136.752L677.96,138.211C678.01,138.432 678.079,138.651 678.169,138.871C678.279,139.161 678.409,139.441 678.56,139.701C679.69,141.721 681.69,142.991 683.96,143.121L684.35,143.131C686.69,143.131 688.82,141.911 690.23,139.741L690.339,139.571C693.05,135.081 694.96,129.491 696.029,122.951C696.059,122.801 696.069,122.651 696.089,122.502L698.35,106.871L698.38,106.661L698.4,106.411C699,99.481 700.16,96.881 700.541,96.191C701.17,95.001 701.28,95.021 702.27,95.161C702.56,95.201 702.85,95.231 703.15,95.231C706.58,95.231 710.36,96.451 714.07,98.771L714.39,98.951C717.44,100.611 721.089,103.541 725.87,108.161L738.659,121.221L738.749,121.311L738.81,121.381C744.93,127.291 749.64,131.111 754.06,133.762C754.999,134.322 756.08,134.621 757.18,134.621C766.339,134.621 770.99,131.691 770.99,125.911C770.99,115.911 772.49,104.481 775.44,91.911C777.461,84.201 781.06,72.411 786.13,56.871C786.319,56.261 786.43,55.651 786.43,55.011C786.44,54.511 786.85,52.361 788.44,48.371L788.51,48.201C789.73,45.351 791.159,41.431 791.499,38.041C791.85,37.301 792.439,36.231 793.239,35.271C793.45,35.031 793.63,34.771 793.8,34.501L797.279,29.171C797.359,29.041 797.439,28.911 797.509,28.781C801.229,22.741 801.629,16.351 798.668,10.291C797.579,8.072 795.229,6.732 792.779,6.902ZM961.169,101.992L945.47,105.923C938.779,107.513 933.64,109.082 930.04,110.652C927.47,110.652 924.89,108.551 921.8,104.082C920.259,101.992 918.71,100.673 917.179,100.402C915.89,100.402 914.339,100.932 912.279,101.992L906.099,104.352L897.609,104.081L906.871,79.391C910.211,69.411 912.529,61.011 913.82,54.711C918.189,56.281 924.89,57.071 933.121,57.071L953.961,57.851C961.69,58.641 967.609,61.011 971.721,64.421C977.131,68.891 980.471,75.461 982.01,84.651C979.95,92.532 973.009,98.311 961.169,101.992ZM981.858,48.302C968.499,38.072 955.049,34.092 941.87,36.482L921.229,34.222C912.778,33.142 905.418,33.072 899.938,34.002C898.319,34.282 896.889,35.192 895.959,36.532C895.027,37.872 894.668,39.542 894.979,41.142C896.889,51.132 895.528,62.532 890.928,75.042L877.408,108.382C873.578,115.753 872.558,123.733 874.449,131.492L874.488,131.652L874.549,131.842L879.678,149.402C880.438,151.992 882.819,153.782 885.518,153.782L890.668,153.782C894.027,153.782 896.748,151.052 896.748,147.692L896.748,135.322C897.338,135.221 897.889,135.051 898.398,134.811C905.168,132.002 917.318,128.971 935.459,125.572C952.959,122.503 966.148,118.622 975.768,113.712C976.028,113.582 976.268,113.442 976.498,113.273C981.369,109.863 985.158,106.173 987.908,103.333L988.209,103.014C992.268,98.194 994.289,94.223 994.518,90.583C997.489,74.443 993.399,60.093 982.659,49.043C982.419,48.772 982.149,48.522 981.858,48.302ZM1182.55,94.152C1174.3,89.462 1163.29,87.282 1150.72,87.842L1150.56,87.852L1123.37,88.082L1123.36,87.932L1123.66,84.152C1138.3,72.602 1152.49,64.692 1165.88,60.612C1166.12,60.532 1166.37,60.442 1166.61,60.332C1170.94,58.382 1173.39,54.622 1173.53,49.742C1173.56,49.382 1173.56,49.022 1173.52,48.662L1172.74,41.042C1172.42,37.882 1169.76,35.562 1166.62,35.572L1159,35.572C1158.37,35.582 1157.72,35.662 1157.09,35.862C1156.38,36.092 1155.72,36.452 1155.15,36.912C1146.11,44.032 1136.09,50.862 1125.36,57.212C1115.53,61.252 1087.66,72.982 1091.22,92.652C1091.3,93.102 1091.43,93.542 1091.61,93.972C1094.17,99.923 1098.97,104.013 1105.52,105.811C1105.78,105.891 1106.06,105.952 1106.34,105.992C1106.62,106.032 1106.9,106.052 1107.17,106.061L1122.99,106.572C1123.26,106.582 1123.53,106.572 1123.79,106.551L1141.88,104.752L1157.5,105.471L1158.68,107.471C1158.68,107.532 1158.64,107.782 1158.44,108.211L1156.75,111.272C1151.28,115.762 1144.64,119.711 1136.99,123.012L1136.78,123.112C1129.53,126.582 1122.15,128.902 1114.22,130.212C1112.87,130.442 1111.63,131.112 1110.71,132.122C1106.18,137.102 1103.98,141.872 1103.98,146.732C1103.98,149.092 1105.35,151.242 1107.49,152.242C1108.31,152.622 1109.19,152.811 1110.06,152.811C1111.47,152.811 1112.86,152.322 1113.98,151.391C1118.12,147.902 1123.84,144.631 1130.98,141.662L1152.76,133.822L1152.93,133.753L1153.11,133.683C1162.01,129.983 1168.65,126.243 1173.43,122.233L1173.52,122.153C1180.32,116.203 1184.38,108.843 1185.58,100.283C1185.92,97.811 1184.72,95.382 1182.55,94.152ZM401.229,27.512C400.899,27.472 400.569,27.452 400.229,27.452L395.329,27.452C392.539,27.402 389.979,29.272 389.289,32.092C384.319,52.422 378.399,83.502 371.189,127.112C371.139,127.442 371.109,127.772 371.109,128.102C371.109,133.881 375.749,136.801 384.919,136.801C387.869,136.801 390.399,134.692 390.909,131.781C391.209,130.071 392.139,123.621 391.509,111.911C391.509,108.851 391.539,100.361 392.999,96.541L393.169,96.161L404.459,67.071L404.579,66.741L404.689,66.411C408.269,53.961 408.829,42.511 406.329,32.351C405.839,29.832 403.789,27.882 401.229,27.512ZM227.839,69.222C221.669,74.472 216.009,78.422 210.339,81.572C204.429,84.722 199.799,86.302 196.959,85.512C196.959,78.162 197.469,72.642 198.759,68.962C200.559,63.972 203.908,59.772 209.309,56.882C214.969,53.732 220.889,51.102 226.809,48.742C236.069,45.322 242.249,44.802 245.069,47.162C246.63,48.472 245.599,51.102 241.989,55.562C238.649,59.772 234.019,64.232 227.839,69.222ZM276.729,107.522C270.199,107.522 262.389,106.162 252.879,103.352L229.139,95.362L226.959,92.182C226.769,91.772 226.629,91.412 226.519,91.112C228.519,88.122 231.739,85.192 236.289,82.222L253.029,72.382L253.149,72.312L253.269,72.232C260.269,67.772 264.819,63.412 267.189,58.922C267.259,58.792 267.329,58.652 267.389,58.512C270.289,51.842 269.089,44.512 263.809,36.722C260.659,31.782 254.929,28.272 246.789,26.272L246.609,26.232C239.529,24.732 232.739,24.742 226.439,26.262L226.259,26.312C225.379,26.542 224.589,26.972 223.929,27.522C218.299,31.862 213.179,34.642 208.269,36.022C203.239,37.282 199.279,36.362 196.169,33.182C195.129,32.112 193.799,31.512 192.419,31.382C189.459,31.082 186.639,33.002 185.909,35.992L183.34,46.472C179.79,60.392 175.319,80.462 170.409,104.532C164.529,133.612 160.84,150.221 157.68,161.782C155.32,169.173 156.15,178.673 160.29,191.632C161.11,194.222 163.51,195.872 166.08,195.872C166.26,195.872 166.44,195.862 166.61,195.843C169.58,195.593 171.99,193.193 172.17,190.132L173.45,167.892L173.761,164.103C174.371,156.703 174.851,150.863 175.681,146.203L175.711,146.062C178.041,131.073 183.021,119.983 190.511,113.103C193.651,110.943 199.091,110.542 206.271,111.953C211.631,113.153 218.801,115.543 228.131,119.254C248.511,127.514 264.971,129.293 278.461,124.703C279.261,124.473 280.001,124.073 280.631,123.543C282.091,122.323 282.921,120.473 282.821,118.563L282.821,113.614C282.819,110.253 280.099,107.522 276.729,107.522ZM98.309,59.652L86.859,60.952L86.809,60.952L37.299,64.862C36.809,64.842 35.988,64.662 34.639,63.282C33.739,62.362 33.429,61.602 33.329,60.992C36.259,49.002 40.559,39.952 46.119,34.062L63.159,26.962C69.93,24.412 76.459,22.942 81.999,21.842C84.359,21.632 88.109,20.372 91.269,15.112C93.919,11.122 93.299,8.042 92.299,6.152C90.908,3.502 88.299,2.062 84.528,1.852C75.198,-0.848 65.379,-0.598 54.528,2.612C44.988,5.472 37.108,10.062 31.089,16.242C24.939,20.112 20.629,27.502 17.939,38.782L17.909,38.902L17.909,38.922L15.099,51.682C13.839,56.572 12.749,60.002 11.599,62.652L6.089,70.232L5.999,70.362L5.929,70.452C1.489,77.032 2.149,82.662 3.489,86.232C3.789,87.022 4.249,87.742 4.84,88.342C5.15,88.662 5.68,89.782 5.68,91.962C5.68,92.262 5.7,92.552 5.74,92.842C6.7,99.482 6.94,107.022 6.45,115.332C6.23,120.492 5.32,127.673 4.17,136.753L3.92,138.742L0.87,162.902C0.84,163.082 0.82,163.253 0.81,163.432C-0.04,173.522 -0.22,182.032 0.27,189.452C0.29,189.732 0.32,190.003 0.37,190.263C0.9,193.122 3.41,195.233 6.35,195.233L6.76,195.222C9.73,195.023 12.05,192.733 12.39,189.882L19.28,143.042L19.341,142.692C21.66,125.622 24.561,109.922 27.971,96.042C28.061,95.672 28.111,95.302 28.131,94.932C28.32,94.652 28.971,93.882 30.78,92.752C33.67,91.182 36.1,90.302 38.01,90.142C38.159,90.132 38.31,90.112 38.46,90.092C43.79,89.232 49.46,87.832 55.33,85.932C55.56,85.862 55.78,85.772 55.99,85.672L70.74,79.442L71,79.332C75.73,77.242 80.35,75.422 84.73,73.912L88.46,73.022L99.68,71.752C103.02,71.372 105.42,68.362 105.04,65.022C104.669,61.682 101.649,59.272 98.309,59.652Z"/>
    </g>
</svg>
